# xmcd CD database file
#
# Track frame offsets:
#	150
#	13881
#	23997
#	34801
#	43310
#	54351
#	65259
#	77896
#	89387
#	100354
#	112661
#	122944
#	135797
#	150469
#	162206
#	174255
#	186963
#	197990
#	209803
#	224671
#
# Disc length: 3201 seconds
#
# Revision: 1
# Processed by: cddbd v1.5.2PL0 Copyright (c) Steve Scherf et al.
# Submitted via: CDex 1.70beta2
#
DISCID=1b0c7f14
DTITLE=Jackie DeShannon - are you ready for this?
DYEAR=1966
DGENRE=Pop
TTITLE0=I Can Make It With You
TTITLE1=Music And Memories
TTITLE2=Will You Love Me Tomorrow
TTITLE3=Are You Ready For This
TTITLE4=To Be Myself 
TTITLE5=Love Is Leading Me
TTITLE6=Windows And Doors
TTITLE7=You Don't Have To Say You Love Me
TTITLE8=So Long Johnny
TTITLE9=To Wait For Love
TTITLE10=Call Me
TTITLE11=Find Me Love
TTITLE12=What The World Needs Now
TTITLE13=A Lifetime Of Loneliness
TTITLE14=Come And Get Me
TTITLE15=Be Good Baby
TTITLE16=Come On Down (From The Top Of That Hill)
TTITLE17=The Wishing Doll
TTITLE18=Where Does The Sun Go
TTITLE19=500 Miles From Yesterday
EXTD=YEAR: 1966
EXTT0=
EXTT1=
EXTT2=
EXTT3=
EXTT4=
EXTT5=
EXTT6=
EXTT7=
EXTT8=
EXTT9=
EXTT10=
EXTT11=
EXTT12=
EXTT13=
EXTT14=
EXTT15=
EXTT16=
EXTT17=
EXTT18=
EXTT19=
PLAYORDER=
